<svg id="visual" viewBox="0 0 900 600" width="900" height="600" xmlns="http://www.w3.org/2000/svg" xmlns:xlink="http://www.w3.org/1999/xlink" version="1.1"><rect x="0" y="0" width="900" height="600" fill="#92edff"></rect><path d="M0 368L16.7 375.5C33.3 383 66.7 398 100 398.7C133.3 399.3 166.7 385.7 200 377.2C233.3 368.7 266.7 365.3 300 368.8C333.3 372.3 366.7 382.7 400 392.8C433.3 403 466.7 413 500 413.3C533.3 413.7 566.7 404.3 600 393C633.3 381.7 666.7 368.3 700 375.2C733.3 382 766.7 409 800 416.2C833.3 423.3 866.7 410.7 883.3 404.3L900 398L900 601L883.3 601C866.7 601 833.3 601 800 601C766.7 601 733.3 601 700 601C666.7 601 633.3 601 600 601C566.7 601 533.3 601 500 601C466.7 601 433.3 601 400 601C366.7 601 333.3 601 300 601C266.7 601 233.3 601 200 601C166.7 601 133.3 601 100 601C66.7 601 33.3 601 16.7 601L0 601Z" fill="#00b5ff"></path><path d="M0 432L16.7 439.2C33.3 446.3 66.7 460.7 100 461.7C133.3 462.7 166.7 450.3 200 440.5C233.3 430.7 266.7 423.3 300 424.8C333.3 426.3 366.7 436.7 400 444.2C433.3 451.7 466.7 456.3 500 456.3C533.3 456.3 566.7 451.7 600 447.7C633.3 443.7 666.7 440.3 700 444C733.3 447.7 766.7 458.3 800 464.7C833.3 471 866.7 473 883.3 474L900 475L900 601L883.3 601C866.7 601 833.3 601 800 601C766.7 601 733.3 601 700 601C666.7 601 633.3 601 600 601C566.7 601 533.3 601 500 601C466.7 601 433.3 601 400 601C366.7 601 333.3 601 300 601C266.7 601 233.3 601 200 601C166.7 601 133.3 601 100 601C66.7 601 33.3 601 16.7 601L0 601Z" fill="#00c7ff"></path><path d="M0 510L16.7 510.7C33.3 511.3 66.7 512.7 100 515.8C133.3 519 166.7 524 200 520.8C233.3 517.7 266.7 506.3 300 500.2C333.3 494 366.7 493 400 494.3C433.3 495.7 466.7 499.3 500 493.7C533.3 488 566.7 473 600 476.7C633.3 480.3 666.7 502.7 700 510C733.3 517.3 766.7 509.7 800 510.3C833.3 511 866.7 520 883.3 524.5L900 529L900 601L883.3 601C866.7 601 833.3 601 800 601C766.7 601 733.3 601 700 601C666.7 601 633.3 601 600 601C566.7 601 533.3 601 500 601C466.7 601 433.3 601 400 601C366.7 601 333.3 601 300 601C266.7 601 233.3 601 200 601C166.7 601 133.3 601 100 601C66.7 601 33.3 601 16.7 601L0 601Z" fill="#00d7ff"></path><path d="M0 556L16.7 548.7C33.3 541.3 66.7 526.7 100 520C133.3 513.3 166.7 514.7 200 517.8C233.3 521 266.7 526 300 529.7C333.3 533.3 366.7 535.7 400 537C433.3 538.3 466.7 538.7 500 536.8C533.3 535 566.7 531 600 534.5C633.3 538 666.7 549 700 555.2C733.3 561.3 766.7 562.7 800 559.3C833.3 556 866.7 548 883.3 544L900 540L900 601L883.3 601C866.7 601 833.3 601 800 601C766.7 601 733.3 601 700 601C666.7 601 633.3 601 600 601C566.7 601 533.3 601 500 601C466.7 601 433.3 601 400 601C366.7 601 333.3 601 300 601C266.7 601 233.3 601 200 601C166.7 601 133.3 601 100 601C66.7 601 33.3 601 16.7 601L0 601Z" fill="#19e6ff"></path></svg>